# xmcd CD database file
#
# Track frame offsets:
#	150
#	36300
#	71730
#	147400
#	186575
#	223897
#	244340
#	286362
#
# Disc length: 4329 seconds
#
# Revision: 0
# Processed by: cddbd v1.5.1PL0 Copyright (c) Steve Scherf et al.
# Submitted via: CDex 1.50
#
DISCID=8d10e708
DTITLE=Yusef Lateef - Full Circle
DYEAR=1996
DGENRE=Jazz
TTITLE0=Dakpa
TTITLE1=When the Saints Go Marching In
TTITLE2=Love Poem
TTITLE3=One Day
TTITLE4=Ya Suragi No Uta (Song of Peace)
TTITLE5=Recuerdos de la Alhambra (Memories of Alhambra by Francisco Tarrega)
TTITLE6=Hexatology
TTITLE7=Death in the Morning
EXTD=YEAR: 1996
EXTT0=
EXTT1=
EXTT2=
EXTT3=
EXTT4=
EXTT5=
EXTT6=
EXTT7=
PLAYORDER=
